<svg width="36" height="30" viewBox="0 0 36 30" fill="none" xmlns="http://www.w3.org/2000/svg">
<path d="M36 15.0003C36 15.8465 35.3754 16.5456 34.5688 16.6481L34.3636 16.661H1.63636C0.973091 16.661 0.377455 16.2558 0.124364 15.6336C0.0414546 15.4299 0 15.2151 0 15.0003C0 14.6405 0.115152 14.2838 0.336616 13.9916L0.482182 13.8246L13.6822 0.483547C14.3215 -0.163021 15.3578 -0.16081 15.9949 0.487972C16.5789 1.08472 16.6276 2.01824 16.1375 2.6677L15.9905 2.83732L5.59855 13.3396L34.3636 13.3396C35.2669 13.3396 36 14.0836 36 15.0003ZM15.9908 27.1627C16.6322 27.8092 16.6322 28.861 15.9951 29.512C15.4111 30.1067 14.4916 30.1582 13.8483 29.6646L13.6802 29.5165L6.40167 22.1584C6.07876 21.8329 5.91949 21.4078 5.91949 20.9804C5.91949 20.5575 6.07876 20.1346 6.39731 19.8091C6.98131 19.2123 7.89898 19.1607 8.54195 19.656L8.71004 19.8046L15.9908 27.1627Z" fill="black"/>
</svg>
