<svg width="36" height="30" viewBox="0 0 36 30" fill="none" xmlns="http://www.w3.org/2000/svg">
<path d="M-6.55656e-07 14.9997C-6.18668e-07 14.1535 0.624645 13.4544 1.43119 13.3519L1.63636 13.339L34.3636 13.339C35.0269 13.339 35.6225 13.7442 35.8756 14.3664C35.9585 14.5701 36 14.7849 36 14.9997C36 15.3595 35.8848 15.7162 35.6634 16.0084L35.5178 16.1754L22.3178 29.5165C21.6785 30.163 20.6422 30.1608 20.0051 29.512C19.4211 28.9153 19.3724 27.9818 19.8625 27.3323L20.0095 27.1627L30.4015 16.6604L1.63636 16.6604C0.733093 16.6604 -6.95727e-07 15.9164 -6.55656e-07 14.9997ZM20.0092 2.83732C19.3678 2.19075 19.3678 1.13897 20.0049 0.487974C20.5889 -0.106744 21.5084 -0.158164 22.1517 0.335418L22.3198 0.483545L29.5983 7.84158C29.9212 8.16708 30.0805 8.59222 30.0805 9.01957C30.0805 9.4425 29.9212 9.86543 29.6027 10.1909C29.0187 10.7877 28.101 10.8393 27.4581 10.344L27.29 10.1954L20.0092 2.83732Z" fill="black"/>
</svg>
