<svg width="23" height="23" viewBox="0 0 23 23" fill="none" xmlns="http://www.w3.org/2000/svg">
<path d="M22.7186 21.3973L18.7657 17.5325L18.673 17.3916C18.5007 17.2201 18.2652 17.1235 18.0193 17.1235C17.7735 17.1235 17.5379 17.2201 17.3657 17.3916C14.0062 20.4736 8.82977 20.6411 5.26924 17.7831C1.70872 14.925 0.869009 9.92826 3.307 6.10662C5.74499 2.28499 10.7042 0.824364 14.8956 2.69343C19.087 4.56249 21.2101 9.18125 19.8568 13.4866C19.7594 13.7976 19.839 14.1358 20.0658 14.3739C20.2926 14.6119 20.632 14.7136 20.9563 14.6406C21.2805 14.5676 21.5403 14.331 21.6377 14.02C23.2555 8.91084 20.8122 3.41265 15.8884 1.0822C10.9645 -1.24824 5.03791 0.288444 1.94239 4.69817C-1.15313 9.10791 -0.488538 15.0673 3.50623 18.7212C7.501 22.3751 13.6271 22.627 17.9215 19.3139L21.4216 22.7358C21.783 23.0877 22.3674 23.0877 22.7289 22.7358C23.09 22.379 23.09 21.8044 22.7289 21.4476L22.7186 21.3973Z" fill="black"/>
</svg>
